<?xml version="1.0" encoding="iso-8859-1"?>
<!-- Generator: Adobe Illustrator 19.0.0, SVG Export Plug-In . SVG Version: 6.00 Build 0)  -->
<svg version="1.1" id="Capa_1" xmlns="http://www.w3.org/2000/svg" xmlns:xlink="http://www.w3.org/1999/xlink" x="0px" y="0px"
	 viewBox="0 0 512 512" style="enable-background:new 0 0 512 512;" xml:space="preserve">
<g>
	<g>
		<path d="M493.176,1.882H105.412c-10.328,0-18.729,8.326-18.823,18.654l-2.98,335.228H18.824C8.427,355.765,0,364.191,0,374.588
			v45.804c0,49.475,40.251,89.726,89.725,89.726v-37.647c-28.718,0-52.078-23.366-52.078-52.078v-26.98h294.902v26.98
			c0,49.475,40.251,89.726,89.726,89.726c49.474,0,89.725-40.251,89.725-89.726V20.706C512,10.309,503.573,1.882,493.176,1.882z
			 M474.353,420.392c0,28.712-23.366,52.078-52.078,52.078s-52.078-23.366-52.078-52.078v-45.804
			c0-10.397-8.427-18.824-18.824-18.824H121.261l2.805-316.235h350.287V420.392z"/>
	</g>
</g>
<g>
	<g>
		<rect x="86.588" y="472.471" width="331.294" height="37.647"/>
	</g>
</g>
<g>
	<g>
		<path d="M293.02,94.118h-97.255c-10.397,0-18.824,8.427-18.824,18.823s8.427,18.824,18.824,18.824h97.255
			c10.397,0,18.824-8.427,18.824-18.824S303.417,94.118,293.02,94.118z"/>
	</g>
</g>
<g>
	<g>
		<path d="M393.412,175.686H195.765c-10.397,0-18.824,8.427-18.824,18.824c0,10.397,8.427,18.823,18.824,18.823h197.647
			c10.397,0,18.823-8.427,18.823-18.823S403.809,175.686,393.412,175.686z"/>
	</g>
</g>
<g>
	<g>
		<path d="M393.412,257.255H195.765c-10.397,0-18.824,8.427-18.824,18.824s8.427,18.824,18.824,18.824h197.647
			c10.397,0,18.823-8.427,18.823-18.824S403.809,257.255,393.412,257.255z"/>
	</g>
</g>
<g>
</g>
<g>
</g>
<g>
</g>
<g>
</g>
<g>
</g>
<g>
</g>
<g>
</g>
<g>
</g>
<g>
</g>
<g>
</g>
<g>
</g>
<g>
</g>
<g>
</g>
<g>
</g>
<g>
</g>
</svg>
