<?xml version="1.0" encoding="iso-8859-1"?>
<!-- Generator: Adobe Illustrator 19.0.0, SVG Export Plug-In . SVG Version: 6.00 Build 0)  -->
<svg version="1.1" id="Capa_1" xmlns="http://www.w3.org/2000/svg" xmlns:xlink="http://www.w3.org/1999/xlink" x="0px" y="0px"
	 viewBox="0 0 512 512" style="enable-background:new 0 0 512 512;" xml:space="preserve">
<g>
	<g>
		<path d="M291.844,367.497c-6.206,6.206-14.035,10.397-22.641,12.118l-69.631,13.926c-2.852,0.57-5.774,0.859-8.681,0.859
			c-11.835,0-22.961-4.609-31.326-12.974c-8.175-8.173-12.711-19.052-12.956-30.341l-30.685,26.143
			c-5.861,4.993-13.04,7.573-20.335,7.573c-4.48,0-9.003-0.972-13.295-2.954C71.009,376.635,64,365.679,64,353.251v-12.608
			c0-0.314,0-1.149-1.003-1.709c-1.004-0.559-1.714-0.123-1.983,0.041L0,376.984v91.263c0,8.157,6.613,14.769,14.769,14.769h320
			c8.157,0,14.769-6.613,14.769-14.769V309.803L291.844,367.497z"/>
	</g>
</g>
<g>
	<g>
		<path d="M14.769,138.401C6.613,138.401,0,145.014,0,153.17v189.015l45.466-28.323c9.775-6.019,21.989-6.276,31.94-0.714
			c9.952,5.56,16.133,16.096,16.133,27.495v12.608c0,0.375,0,1.252,1.137,1.778c1.137,0.522,1.807-0.044,2.091-0.287l42.332-36.064
			c3.764-3.206,8.826-4.271,13.487-2.991l8.782-43.909c1.722-8.606,5.912-16.433,12.117-22.639l110.739-110.739H14.769z"/>
	</g>
</g>
<g>
	<g>
		<path d="M507.674,61.158l-27.849-27.849c-5.767-5.767-15.119-5.767-20.887,0l-17.406,17.406l-3.482-3.482
			c-5.767-5.767-15.119-5.767-20.887,0l-45.255,45.255l76.584,76.584l45.255-45.255c5.768-5.767,5.768-15.119,0-20.887l-3.482-3.482
			l17.406-17.406C513.443,76.278,513.443,66.926,507.674,61.158z"/>
	</g>
</g>
<g>
	<g>
		<path d="M351.023,113.375L194.372,270.026c-2.062,2.062-3.467,4.688-4.04,7.547l-13.925,69.623
			c-0.968,4.842,0.547,9.848,4.04,13.34c2.797,2.797,6.565,4.326,10.443,4.326c0.963,0,1.933-0.095,2.896-0.286l69.623-13.925
			c2.859-0.572,5.485-1.978,7.547-4.04l156.651-156.651L351.023,113.375z"/>
	</g>
</g>
<g>
</g>
<g>
</g>
<g>
</g>
<g>
</g>
<g>
</g>
<g>
</g>
<g>
</g>
<g>
</g>
<g>
</g>
<g>
</g>
<g>
</g>
<g>
</g>
<g>
</g>
<g>
</g>
<g>
</g>
</svg>
